<?xml version="1.0" encoding="utf-8"?>
<!-- Generator: Adobe Illustrator 16.0.0, SVG Export Plug-In . SVG Version: 6.00 Build 0)  -->
<!DOCTYPE svg PUBLIC "-//W3C//DTD SVG 1.1//EN" "http://www.w3.org/Graphics/SVG/1.1/DTD/svg11.dtd">
<svg version="1.1" id="Layer_1" xmlns="http://www.w3.org/2000/svg" xmlns:xlink="http://www.w3.org/1999/xlink" x="0px" y="0px"
	 width="637px" height="120px" viewBox="0 0 637 120" enable-background="new 0 0 637 120" xml:space="preserve">
<text transform="matrix(1 0 0 1 186.2805 78.1758)" font-family="'AmericanTypewriter'" font-size="60">Flask</text>
<text transform="matrix(1 0 0 1 344.4573 78.1758)" font-family="'MavenProLight200-Regular'" font-size="65">Multipass</text>
<path d="M39.001,82.503c0.355-0.813,0.755-1.61,1.059-2.448c1.485-4.101,3.961-7.427,7.479-10.042
	c0.637-0.47,0.916-1.511,1.208-2.336c0.314-0.89,0.564-1.831,1.635-1.98c2.382-0.33,2.906-1.942,3.164-4.01
	c0.376-3.038,0.984-6.054,1.481-9.081c0.647-3.925,1.263-7.858,1.934-11.777c0.24-1.407,0.694-2.779,0.852-4.19
	c0.057-0.518-0.315-1.347-0.748-1.61c-1.49-0.906-2.02-1.828-1.673-3.544c0.427-2.118,0.669-4.296,1.347-6.333
	c0.631-1.901,0.062-4.158,1.683-5.745c0.449-0.439,0.897-1.025,1.45-1.184c2.892-0.835,5.844-0.826,8.813-0.441
	c0.778,0.101,1.576,0.042,2.366,0.068c2.547,0.083,5.093,0.225,7.644,0.249c4.431,0.043,8.862,0.041,13.292-0.003
	c1.384-0.013,2.355,0.295,2.787,1.794c0.114,0.392,0.908,0.772,1.422,0.823c1.22,0.119,2.462,0.021,3.693,0.041
	c4.82,0.081,9.64,0.169,14.464,0.264c4.048,0.078,8.087,0.13,12.13,0.274c2.737,0.101,5.479,0.28,8.207,0.554
	c0.776,0.08,1.556,0.533,2.25,0.951c2.32,1.384,4.822,2.267,7.513,2.119c1.562-0.088,3.085-0.751,4.634-1.158
	c2.457-0.65,4.9-1.761,7.378-1.845c3.886-0.136,7.289,1.52,9.964,4.468c0.189,0.215,0.448,0.431,0.721,0.51
	c1.691,0.496,1.894,0.765,1.79,2.437c-0.063,1.002-0.125,2.006-0.112,3.009c0.034,3.216,0.135,6.431,0.141,9.648
	c0.012,2.395,0.139,4.824-0.204,7.178c-0.326,2.242-0.316,4.389,0.023,6.608c0.119,0.807-0.379,1.695-0.368,2.545
	c0.007,0.986,0.407,1.98,0.372,2.962c-0.034,1.13-0.494,2.241-0.522,3.365c-0.14,4.671-0.198,9.343-0.24,14.015
	c-0.009,0.706-0.292,1.612,0.739,1.968c0.022,0.01,0.034,0.079,0.034,0.126c-0.124,2.261-0.241,4.521-0.37,6.781
	c-0.035,0.561-0.163,1.13-0.113,1.688c0.215,2.361-1.547,3.563-2.956,4.873c-3.413,3.153-7.706,3.227-11.934,2.835
	c-2.019-0.183-4.012-1.069-5.924-1.865c-2.339-0.968-4.74-0.562-7.127-0.699c-2.895-0.159-5.576,0.21-7.998,2.1
	c-0.799,0.628-2.144,0.786-3.23,0.767c-3.93-0.062-7.852-0.291-11.782-0.476c-0.618-0.031-1.236-0.171-1.795-0.556
	c0.774-0.289,1.549-0.578,2.439-0.91c1.943,1.219,4.369,1.32,5.521-0.005c-0.445-0.141-0.824-0.349-1.207-0.364
	c-2.223-0.122-4.455-0.188-6.677-0.286c-1.092-0.047-2.045,0.058-1.98,1.81c-2.044-0.24-3.961-0.533-5.891-0.66
	c-0.724-0.05-1.473,0.406-2.22,0.42c-3.604,0.041-7.21,0.025-10.815,0.012c-0.832-0.006-1.474,0.128-2.005,0.925
	c-0.261,0.391-1.016,0.634-1.55,0.638c-5.103,0.049-10.206,0.037-15.305,0.013c-0.932-0.001-1.684,0.126-2.216,1.03
	c-0.188,0.315-0.811,0.571-1.206,0.536c-3.074-0.284-5.874,0.362-8.623,1.822c-3.028,1.6-6.415,2.095-9.786,1.587
	c-3.005-0.454-5.784-1.65-8.26-3.546c-3.491-2.675-5.311-6.292-6.302-10.443c-0.065-0.267-0.321-0.493-0.488-0.736
	C39.001,86.197,39.001,84.346,39.001,82.503z M48.299,73.548c1.821-0.742,3.423-1.423,5.05-2.045c0.51-0.195,1.09-0.36,1.622-0.322
	c1.296,0.102,2.623,0.182,3.864,0.533c1.726,0.49,3.625,0.889,5.025,1.904c3.699,2.704,5.061,6.475,4.319,10.651
	c-0.611,3.441-2.205,6.449-5.14,8.687c-3.27,2.499-6.787,3.666-10.819,2.715c-3.89-0.916-6.954-2.86-7.847-7.146
	c-0.075-0.356-0.357-0.674-0.491-1.029c-0.106-0.275-0.136-0.579-0.19-0.872c-0.132-0.703-0.26-1.402-0.381-2.112
	c-0.101-0.581-0.19-1.163-0.279-1.746c-0.081-0.514-0.152-1.022-0.228-1.541c-0.108,0.012-0.216,0.024-0.325,0.037
	c-1.065,1.599-2.129,3.193-3.105,4.659c0.529,0.318,1.228,0.486,1.465,0.915c0.638,1.155,1.013,2.447,1.61,3.618
	c0.933,1.841,1.707,3.847,3.014,5.383c1.818,2.145,4.438,3.112,7.166,3.884c1.606,0.457,3.84-0.888,4.811,1.93
	c0.557-1.727,1.625-2.057,2.933-2.025c0.267,0.008,0.574-0.209,0.806-0.394c1.042-0.831,2.018-1.757,3.11-2.519
	c0.612-0.42,1.403-0.598,2.12-0.863c0.347-0.127,0.708-0.217,1.099-0.33c-0.491-1.384-0.39-2.31,0.988-3.034
	c1.036-0.548,2.148-1.409,2.652-2.423c1.588-3.188,2.088-6.579,1.689-10.201c-0.71-6.458-6.67-12.032-13.065-12.425
	c-0.454-0.029-0.889-0.406-1.332-0.615c0.072-0.185,0.145-0.362,0.218-0.54c1.25,0.254,2.552,0.368,3.742,0.799
	c4.924,1.759,8.75,4.739,10.692,9.814c0.837,2.184,1.148,4.443,1.116,6.729c-0.013,1.09,0.232,1.536,1.301,1.563
	c0.301,0.011,0.635,0.176,0.876,0.367c0.074,0.055-0.052,0.584-0.203,0.651c-0.245,0.118-0.655,0.149-0.871,0.021
	c-0.994-0.621-1.424-0.115-1.728,0.752c-0.328,0.943-0.583,1.915-1.008,2.815c-0.477,1.004-1.075,1.957-1.683,2.896
	c-0.405,0.622-0.935,1.165-1.377,1.765c-0.419,0.57-0.838,1.149-1.174,1.767c-0.158,0.296-0.292,0.853-0.141,1.015
	c0.613,0.671,3.731,0.557,4.349-0.142c0.564-0.644,1.168-0.938,2.044-0.888c1.459,0.075,2.926-0.011,4.392,0.025
	c3.282,0.067,6.564,0.166,9.849,0.256c0.174,0.01,0.354,0,0.523,0.035c2.316,0.457,2.699,0.195,2.945-2.087
	c0.103-0.984,0.533-1.467,1.61-1.395c2.18,0.144,4.364,0.202,6.549,0.276c2.842,0.097,5.689,0.179,8.533,0.267
	c2.796,0.086,5.599,0.185,8.395,0.261c3.416,0.101,6.831,0.178,10.247,0.267c0.223,0.008,0.444-0.014,0.656,0.025
	c2.355,0.421,4.633,0.33,6.957-0.4c4.252-1.327,8.555-1.44,12.812,0.083c3.383,1.219,6.774,2.257,10.455,1.891
	c4.112-0.417,6.983-2.65,9.062-6.043c0.599-0.989,0.226-1.599-0.914-1.891c-0.462-0.114-0.938-0.254-1.397-0.249
	c-6.348,0.111-12.676-0.208-19.001-0.767c-3.135-0.279-6.297-0.205-9.445-0.305c-0.443-0.013-0.88-0.095-1.32-0.144
	c-0.012-0.188-0.023-0.365-0.026-0.551c0.705-0.082,1.411-0.188,2.122-0.248c0.748-0.07,1.498-0.096,2.245-0.138
	c-0.011-0.152-0.013-0.305-0.024-0.457c-1.952,0-3.896,0-5.954,0c0.294,0.469,0.492,0.763,0.876,1.364
	c-4.451-0.148-8.607-0.297-12.767-0.438c-0.017-0.191-0.029-0.393-0.042-0.593c0.962-0.156,1.917-0.321,2.982-0.499
	c-1.484-0.865-18.74-1.385-20.604-0.635c1.702,0.774,3.669-0.178,5.206,0.914c-0.229,0.279-0.428,0.368-0.622,0.364
	c-4.164-0.085-8.332-0.161-12.499-0.281c-0.391-0.01-0.778-0.335-1.454-0.642c0.895-0.343,1.438-0.546,1.997-0.762
	c-0.317-0.551-0.616-1.066-1.054-1.828c1.442,0.131,2.638,0.306,3.834,0.342c2.125,0.052,4.247-0.024,6.37,0.025
	c2.401,0.048,4.807,0.179,7.211,0.255c0.8,0.022,1.6-0.089,2.399-0.026c2.082,0.153,4.151,0.411,6.233,0.521
	c0.951,0.052,1.904-0.229,2.855-0.216c1.6,0.025,3.192,0.19,4.788,0.267c3.731,0.178,7.464,0.368,11.196,0.494
	c2.228,0.065,4.458-0.02,6.689,0.014c4.265,0.069,8.521,0.174,12.783,0.257c0.531,0.01,1.066-0.047,1.583,0.035
	c1.972,0.305,2.516,0.013,3.281-2.031c0.388,0.203,1.006,0.32,1.076,0.584c0.192,0.773,0.472,1.765,0.145,2.349
	c-0.32,0.559-1.337,0.965-2.073,1.004c-1.637,0.076-3.287-0.127-4.926-0.191c-2.659-0.1-5.317-0.178-7.972-0.267
	c-2.704-0.089-5.408-0.189-8.112-0.253c-0.545-0.014-1.092,0.12-1.638,0.185c0.012,0.144,0.023,0.284,0.035,0.425
	c8.241,0.35,16.48,0.698,25.113,1.066c0-3.258,0.002-6.359-0.005-9.459c-0.008-2.476-0.07-4.964-0.045-7.444
	c0.024-2.217,0.114-4.426,0.203-6.64c0.063-1.633,0.169-3.266,0.266-4.898c0.09-1.637,0.254-3.275,0.262-4.913
	c0.006-1.047-0.333-2.095-0.327-3.142c0.013-4.132,0.091-8.262,0.155-12.392c0.042-2.487,0.151-4.975,0.139-7.459
	c0-0.884-0.203-1.718-1.472-1.726c-2.535-0.02-5.067-0.113-7.604-0.258c-1.833-0.103-3.764,0.505-5.485-0.644
	c-0.114-0.079-0.328-0.023-0.492-0.015c-2.301,0.134-4.599,0.278-6.896,0.394c-0.238,0.012-0.533-0.089-0.717-0.24
	c-0.896-0.732-1.822-0.488-2.85-0.312c-0.94,0.164-1.96-0.083-2.945-0.154c-0.324-0.022-0.66-0.128-0.965-0.079
	c-0.916,0.148-1.828,0.503-2.741,0.505c-2.046,0.01-4.103-0.104-6.146-0.261c-0.563-0.044-1.104-0.612-1.646-0.603
	c-1.436,0.024-2.86,0.306-4.294,0.35c-2.158,0.068-4.316,0.031-6.469,0.005c-0.416-0.003-0.831-0.19-1.25-0.235
	c-1.282-0.134-2.556-0.304-3.835-0.336c-0.723-0.019-1.446,0.311-2.17,0.304c-4.338-0.055-8.674-0.148-13.014-0.254
	c-1.211-0.031-1.798,0.471-1.737,1.706c0.028,0.569,0.079,1.155-0.01,1.711c-0.355,2.208-0.317,2.424-2.511,2.403
	c-2.903-0.03-5.805,0.052-8.705-0.037c-1.25-0.038-1.64,0.527-1.698,1.604c-0.041,0.783-0.057,1.57-0.155,2.346
	c-0.374,2.968-0.793,5.927-1.161,8.895c-0.305,2.498-0.533,5.007-0.845,7.505c-0.396,3.181-0.856,6.354-1.269,9.525
	c-0.389,3.01-0.724,6.029-1.149,9.038c-0.172,1.206,0.117,1.702,1.33,1.751c2.841,0.1,5.689,0.128,8.527,0.281
	c1.795,0.101,3.739-0.02,4.789,1.979c0.106,0.203,0.416,0.305,0.628,0.455c1.372,0.954,2.302,2.109,1.981,3.934
	c-0.156,0.893-0.149,1.819-0.29,2.721c-0.076,0.482-0.311,0.952-0.469,1.422c-0.19-0.514-0.41-1.016-0.55-1.549
	c-0.047-0.178,0.174-0.406,0.163-0.609c-0.063-1.426,0.317-3.136-0.337-4.215c-1.131-1.854-2.981-3.198-5.431-3.098
	c-1.182,0.051-2.363,0.127-3.563,0.19c-0.177,1.39-0.183,1.296-1.593,1.436c-1.199,0.126-2.369,0.482-3.789,0.792
	c-0.18-1.58-1.569-0.59-2.609-0.627c-0.013-0.115-0.027-0.239-0.043-0.356c0.74-0.457,1.478-0.914,2.215-1.371
	c0.017-0.12,0.032-0.241,0.045-0.368c-1.994-0.152-3.019-1.396-4.05-2.88c-1.149-1.652-2.698-3.036-4.125-4.488
	c-0.351-0.363-0.896-0.541-1.369-0.769c-0.558-0.255-1.158-0.433-1.7-0.72c-0.828-0.437-1.193-1.862-2.561-1.185
	c-0.007,0.008-0.401-0.496-0.373-0.737c0.271-2.277,0.562-4.555,0.905-6.826c0.67-4.405,1.384-8.803,2.069-13.203
	c0.545-3.506,1.051-7.021,1.622-10.52c0.196-1.2,1.408-1.997,2.568-1.913c1.697,0.125,3.399,0.252,5.096,0.246
	c1.206-0.006,2.418-0.18,3.612-0.362c1.689-0.26,3.358-0.748,5.052-0.843c1.055-0.057,1.916-0.146,2.774-1.245
	c-1.302,0-2.368-0.044-3.428,0.014c-0.774,0.043-1.543,0.348-2.309,0.317c-2.826-0.115-5.654-0.274-8.476-0.511
	c-2.013-0.169-4.023-0.448-6.023-0.762c-0.755-0.119-1.253-0.6-0.792-1.663c2.119,1.767,4.607,1.362,7.024,1.381
	c1.822,0.015,3.681-0.216,5.462,0.056c4.15,0.634,8.34-0.338,12.476,0.457c0.635,0.122,1.082-0.089,1.253-0.941
	c0.239-1.198,0.783-2.334,1.224-3.584c1.11,0.972,2.313,1.263,3.7,0.629c0.368-0.166,0.87-0.055,1.308-0.036
	c3.748,0.168,7.494,0.359,11.239,0.504c0.597,0.023,1.206-0.257,1.79-0.222c2.171,0.127,4.338,0.35,6.503,0.498
	c2.828,0.192,5.655,0.423,8.48,0.486c2.117,0.051,4.236-0.093,6.353-0.242c0.702-0.051,1.388-0.389,2.087-0.596
	c-0.701-0.407-1.396-0.825-2.107-1.219c-0.102-0.057-0.262-0.019-0.395-0.007c-2.194,0.179-4.421-0.696-6.598,0.236
	c-0.172,0.076-0.423-0.022-0.64-0.046c-1.339-0.151-2.671-0.402-4.01-0.438c-4.774-0.133-9.56-0.202-14.333-0.278
	c-1.552-0.025-3.111,0.042-4.659-0.001c-1.526-0.043-3.083-0.417-4.562-0.203c-1.821,0.261-3.275-0.247-4.767-1.122
	c-0.565-0.331-1.308-0.49-1.974-0.504c-5.581-0.125-11.165-0.258-16.745-0.266c-4.339-0.007-8.677,0.17-13.016,0.235
	c-0.993,0.013-1.894,0.108-2.031,1.321c-0.127,1.13,0.662,1.567,1.584,1.855c1.215,0.383,1.726,1.746,0.815,2.512
	c-0.682,0.571-1.646,1.037-2.516,1.098c-0.989,0.07-1.339,0.384-1.349,1.282c-0.003,0.222,0.015,0.442-0.004,0.66
	c-0.164,1.809,0.458,2.514,2.19,2.349c0.896-0.083,1.676,0.178,1.956,0.962c0.367,1.018,1.562,1.873,0.749,3.208
	c-0.25,0.415-0.325,0.958-0.396,1.458c-0.201,1.389-0.436,2.782-0.499,4.179c-0.048,1.085-1.614,2.342,0.14,3.079
	c-0.352,1.047-0.755,1.949-0.947,2.895c-0.278,1.352-0.266,2.773-0.618,4.101c-0.728,2.741-1.489,5.44-1.59,8.321
	c-0.044,1.247-0.791,2.504-1.39,3.672c-0.343,0.66-1.032,1.143-1.564,1.711c0.122,0.041,0.243,0.092,0.364,0.143
	c0.159,0.398,0.318,0.8,0.479,1.206c-0.447-0.119-0.897-0.229-1.343-0.364c-0.075-0.017-0.125-0.118-0.193-0.174
	c-0.694-0.546-1.352-0.579-1.602,0.373c-0.237,0.914-0.865,1.181-1.636,1.396c-2.263,0.625-3.022,2.679-4.117,4.405
	C48.172,72.768,48.257,72.983,48.299,73.548z M67.27,81.972c0.293-5.576-5.032-9.801-10.323-9.471
	c-3.607,0.229-6.59,1.702-9.187,4.431c-3.948,4.14-4.121,12.021,0.628,15.902c1.724,1.408,3.794,2.202,5.833,2.22
	c2.778,0.021,5.445-0.792,7.796-2.633C65.281,89.872,67.195,86.771,67.27,81.972z M58.022,41.928
	c0.075,0.016,0.15,0.032,0.226,0.049c-0.148,0.528-0.319,1.049-0.44,1.582c-0.472,2.062-0.998,4.113-1.371,6.189
	c-0.512,2.847-0.9,5.718-1.345,8.576c-0.258,1.663-0.57,3.322-0.765,4.985c-0.12,1.028,0.477,1.308,1.481,1.017
	c1.416-0.407,1.469-1.601,1.644-2.662c0.59-3.581,1.053-7.182,1.646-10.764c0.827-4.98,1.739-9.95,2.594-14.926
	c0.331-1.93-0.096-2.57-1.974-3.015c-0.298-0.07-0.75-0.028-0.942,0.158c-0.162,0.157-0.07,0.597-0.06,0.911
	c0.031,1.148,0.193,2.308,0.082,3.444C58.648,38.968,58.289,40.443,58.022,41.928z M161.084,25.866
	c0.071-0.227,0.14-0.454,0.207-0.682c-0.791-0.334-1.562-0.893-2.37-0.956c-1.849-0.144-3.715-0.094-5.568-0.009
	c-0.406,0.02-0.796,0.514-1.193,0.788c0.485,0.251,0.952,0.622,1.463,0.717c0.479,0.088,1.017-0.203,1.523-0.184
	C157.125,25.617,159.104,25.752,161.084,25.866z M93.682,94.186c1.834,1.262,13.157,1.573,14.079,0.507
	C103.006,94.236,98.348,94.033,93.682,94.186z M69.145,40.017c3.07,0.356,6.118,1.226,9.228,0.266
	C75.325,39.573,72.252,39.415,69.145,40.017z M78.798,36.223c0-0.124,0-0.249-0.001-0.375c-3.08-0.077-6.152-0.848-9.241-0.127
	c0,0.168-0.003,0.336-0.005,0.503C72.635,36.223,75.718,36.223,78.798,36.223z M66.75,54.973c-0.012,0.23-0.024,0.463-0.037,0.697
	c1.292,0.145,2.58,0.331,3.875,0.4c0.274,0.014,0.571-0.393,0.857-0.607c-0.278-0.219-0.556-0.624-0.836-0.63
	C69.323,54.818,68.038,54.916,66.75,54.973z M68.884,50.883c0.653,0.744,3.881,0.82,4.633,0.104
	C72.865,50.346,69.651,50.275,68.884,50.883z M74.83,44.52c-1.44-0.059-2.868-1.386-4.544-0.141
	C71.896,45.599,73.384,44.639,74.83,44.52z M73.958,46.588c1.427,1.097,2.732,0.779,4.345,0.284
	C76.76,46.257,75.51,45.654,73.958,46.588z M69.312,37.739c0,0.121,0,0.243,0,0.367c1.864,0,3.729,0,5.595,0
	c0-0.123,0-0.245-0.002-0.367C73.041,37.739,71.175,37.739,69.312,37.739z M76.977,49.229c0.006-0.133,0.008-0.266,0.012-0.398
	c-0.59-0.206-1.168-0.491-1.774-0.574c-0.25-0.038-0.562,0.362-0.843,0.564c0.216,0.223,0.428,0.629,0.649,0.636
	C75.672,49.466,76.326,49.317,76.977,49.229z M72.842,42.198c0.002,0.124,0.002,0.245,0.007,0.365c1.544,0,3.087,0,4.632,0
	c0.001-0.121,0.002-0.242,0.003-0.365C75.935,42.198,74.389,42.198,72.842,42.198z M75.127,33.751
	c0.008,0.122,0.015,0.243,0.025,0.364c1.493,0,2.989,0,4.483,0c0-0.121,0.003-0.242,0.005-0.364
	C78.136,33.751,76.631,33.751,75.127,33.751z M168.031,85.91c0.128,0.01,0.257,0.01,0.388,0.018c0-1.129,0-2.256,0-3.386
	c-0.131,0.001-0.26,0.001-0.388,0.001C168.031,83.663,168.031,84.79,168.031,85.91z M129.718,95.825
	c-0.6-0.865-1.361-0.84-2.149-0.33c-0.113,0.074-0.113,0.593,0,0.658C128.357,96.673,129.118,96.693,129.718,95.825z M71.134,53.418
	c-0.003-0.115-0.004-0.235-0.007-0.355c-1.368,0-2.732,0-4.098,0c0.002,0.12,0.006,0.24,0.007,0.355
	C68.402,53.418,69.768,53.418,71.134,53.418z M75.656,58.242c0.012-0.146,0.024-0.293,0.037-0.438
	c-0.494-0.203-0.973-0.501-1.485-0.565c-0.267-0.037-0.589,0.33-0.886,0.518c0.21,0.226,0.406,0.632,0.632,0.645
	C74.514,58.443,75.09,58.305,75.656,58.242z M98.094,83.665c-0.002,0.102-0.006,0.205-0.008,0.304c1.329,0,2.662,0,3.992,0
	c0.002-0.099,0.006-0.202,0.009-0.304C100.756,83.665,99.427,83.665,98.094,83.665z M128.44,84.727
	c-0.007,0.102-0.007,0.199-0.008,0.293c1.155,0,2.312,0,3.474,0c0.006-0.094,0.006-0.191,0.007-0.293
	C130.755,84.727,129.601,84.727,128.44,84.727z M67.823,48.521c0.002,0.113,0.006,0.227,0.007,0.34c1.104,0,2.208,0,3.314,0
	c-0.004-0.113-0.008-0.227-0.015-0.34C70.028,48.521,68.927,48.521,67.823,48.521z"/>
</svg>
