<?xml version="1.0" encoding="utf-8"?>
<!-- Generator: Adobe Illustrator 16.0.0, SVG Export Plug-In . SVG Version: 6.00 Build 0)  -->
<!DOCTYPE svg PUBLIC "-//W3C//DTD SVG 1.1//EN" "http://www.w3.org/Graphics/SVG/1.1/DTD/svg11.dtd">
<svg version="1.1" id="Layer_1" xmlns="http://www.w3.org/2000/svg" xmlns:xlink="http://www.w3.org/1999/xlink" x="0px" y="0px"
	 width="841.89px" height="595.28px" viewBox="0 0 841.89 595.28" enable-background="new 0 0 841.89 595.28" xml:space="preserve">
<path fill-rule="evenodd" clip-rule="evenodd" d="M5.49,439.336c2.267-5.188,4.823-10.286,6.739-15.576
	c9.492-26.187,25.311-47.471,47.773-64.118c4.057-3.051,5.838-9.641,7.704-14.967c2.018-5.683,3.604-11.683,10.452-12.645
	c15.199-2.11,18.56-12.352,20.187-25.551c2.405-19.442,6.282-38.667,9.475-58.023c4.129-25.052,8.064-50.142,12.329-75.183
	c1.536-8.963,4.446-17.749,5.433-26.75c0.366-3.316-1.994-8.593-4.753-10.262c-9.521-5.789-12.912-11.67-10.694-22.646
	c2.721-13.525,4.29-27.432,8.596-40.411c4.045-12.153,0.403-26.574,10.746-36.705c2.868-2.8,5.741-6.533,9.268-7.547
	c18.448-5.335,37.298-5.269,56.258-2.809c4.978,0.637,10.082,0.26,15.113,0.425c16.259,0.535,32.537,1.451,48.796,1.61
	c28.29,0.255,56.606,0.247,84.896-0.034c8.805-0.083,15.01,1.897,17.764,11.464c0.724,2.482,5.8,4.913,9.105,5.236
	c7.784,0.767,15.692,0.138,23.553,0.276c30.796,0.504,61.592,1.062,92.387,1.669c25.793,0.519,51.634,0.845,77.42,1.775
	c17.503,0.619,35.008,1.784,52.432,3.528c4.949,0.492,9.9,3.402,14.354,6.048c14.826,8.861,30.796,14.498,47.917,13.534
	c9.97-0.54,19.756-4.787,29.584-7.382c15.715-4.139,31.297-11.231,47.156-11.788c24.805-0.854,46.528,9.72,63.565,28.529
	c1.269,1.375,2.905,2.754,4.614,3.252c10.84,3.186,12.083,4.892,11.428,15.565c-0.404,6.393-0.752,12.807-0.719,19.202
	c0.231,20.542,0.879,41.085,0.949,61.628c0.02,15.284,0.85,30.797-1.307,45.805c-2.094,14.308-2.017,28.042,0.106,42.188
	c0.798,5.18-2.39,10.825-2.351,16.251c0.072,6.319,2.595,12.645,2.418,18.899c-0.235,7.208-3.159,14.333-3.387,21.541
	c-0.838,29.819-1.229,59.646-1.502,89.469c-0.051,4.48-1.844,10.244,4.73,12.519c0.154,0.068,0.232,0.548,0.195,0.8
	c-0.764,14.435-1.558,28.91-2.373,43.346c-0.182,3.576-1.049,7.217-0.728,10.726c1.376,15.081-9.824,22.766-18.847,31.116
	c-21.774,20.175-49.186,20.65-76.228,18.146c-12.882-1.206-25.562-6.871-37.781-11.912c-14.92-6.172-30.251-3.631-45.479-4.461
	c-18.493-1.046-35.652,1.305-51.067,13.381c-5.105,3.981-13.695,5.024-20.657,4.926c-25.063-0.456-50.165-1.859-75.221-3.063
	c-3.967-0.174-7.874-1.064-11.493-3.564c4.943-1.849,9.886-3.656,15.624-5.77c12.403,7.728,27.885,8.373,35.247-0.066
	c-2.838-0.893-5.258-2.196-7.752-2.345c-14.193-0.739-28.395-1.149-42.635-1.792c-6.976-0.321-13.057,0.39-12.642,11.573
	c-12.998-1.536-25.236-3.398-37.551-4.213c-4.63-0.317-9.461,2.592-14.181,2.62c-23.02,0.312-46.042,0.223-69.064,0.084
	c-5.309-0.012-9.431,0.868-12.799,5.908c-1.667,2.51-6.491,4.052-9.924,4.067c-32.555,0.311-65.134,0.293-97.712,0.135
	c-5.954-0.055-10.742,0.75-14.146,6.57c-1.18,2.021-5.182,3.646-7.699,3.408c-19.618-1.796-37.492,2.337-55.046,11.601
	c-19.348,10.265-40.965,13.379-62.485,10.183c-19.203-2.902-36.949-10.536-52.756-22.673
	c-22.291-17.093-33.896-40.132-40.242-66.641c-0.409-1.71-2.035-3.154-3.094-4.704C5.49,462.923,5.49,451.152,5.49,439.336z
	 M64.854,382.188c11.609-4.719,21.854-9.079,32.232-13.051c3.259-1.232,6.968-2.282,10.37-2.034c8.27,0.59,16.74,1.142,24.65,3.396
	c11.023,3.099,23.17,5.618,32.092,12.163c23.624,17.212,32.308,41.283,27.566,68.007c-3.896,21.967-14.07,41.112-32.799,55.449
	c-20.872,15.963-43.332,23.41-69.092,17.329c-24.838-5.891-44.391-18.295-50.094-45.618c-0.484-2.332-2.275-4.306-3.151-6.575
	c-0.659-1.771-0.86-3.715-1.21-5.581c-0.827-4.472-1.651-8.988-2.428-13.464c-0.631-3.721-1.218-7.448-1.794-11.175
	c-0.497-3.254-0.964-6.559-1.436-9.814c-0.703,0.074-1.399,0.105-2.092,0.18c-6.792,10.207-13.583,20.415-19.821,29.753
	c3.396,2.021,7.843,3.141,9.359,5.887c4.061,7.318,6.473,15.58,10.285,23.104c5.959,11.743,10.888,24.55,19.235,34.367
	c11.615,13.635,28.351,19.863,45.75,24.794c10.275,2.865,24.528-5.665,30.728,12.271c3.549-10.976,10.365-13.085,18.71-12.902
	c1.704,0.019,3.679-1.313,5.146-2.512c6.652-5.337,12.886-11.253,19.861-16.061c3.921-2.736,8.958-3.813,13.54-5.519
	c2.216-0.86,4.525-1.372,7.006-2.107c-3.126-8.827-2.479-14.739,6.317-19.422c6.609-3.492,13.732-8.996,16.937-15.418
	c10.135-20.351,13.333-41.991,10.784-65.16c-4.535-41.248-42.591-76.837-83.408-79.345c-2.911-0.17-5.673-2.532-8.508-3.9
	c0.456-1.146,0.929-2.336,1.384-3.48c7.984,1.679,16.293,2.411,23.903,5.106c31.446,11.261,55.858,30.306,68.26,62.66
	c5.355,13.999,7.333,28.373,7.133,43.018c-0.088,6.906,1.486,9.801,8.301,9.977c1.938,0.066,4.058,1.069,5.594,2.287
	c0.479,0.391-0.328,3.777-1.268,4.201c-1.577,0.733-4.207,0.966-5.582,0.088c-6.331-3.969-9.085-0.729-11.027,4.854
	c-2.091,6.002-3.727,12.234-6.438,17.926c-3.044,6.458-6.858,12.547-10.744,18.536c-2.585,3.974-5.961,7.396-8.788,11.215
	c-2.676,3.646-5.35,7.364-7.488,11.331c-0.997,1.868-1.875,5.432-0.906,6.48c3.924,4.231,23.827,3.501,27.762-0.957
	c3.606-4.063,7.46-5.934,13.078-5.67c9.321,0.482,18.685-0.016,28.015,0.164c20.958,0.471,41.937,1.114,62.893,1.683
	c1.106,0.014,2.267,0.002,3.359,0.23c14.793,2.918,17.227,1.233,18.773-13.354c0.682-6.311,3.408-9.338,10.29-8.914
	c13.91,0.899,27.879,1.296,41.822,1.78c18.154,0.642,36.288,1.136,54.442,1.702c17.896,0.565,35.745,1.194,53.642,1.688
	c21.804,0.589,43.608,1.138,65.413,1.703c1.388,0.016,2.837-0.142,4.208,0.105c15.005,2.739,29.583,2.111,44.42-2.523
	c27.146-8.503,54.573-9.229,81.789,0.559c21.566,7.722,43.273,14.359,66.72,12.012c26.256-2.609,44.64-16.872,57.866-38.581
	c3.855-6.264,1.456-10.213-5.836-12.019c-2.923-0.733-5.938-1.677-8.917-1.608c-40.528,0.727-80.9-1.364-121.271-4.934
	c-20.018-1.733-40.254-1.301-60.365-1.896c-2.826-0.127-5.601-0.625-8.424-0.947c-0.029-1.147-0.101-2.342-0.173-3.491
	c4.533-0.559,9.063-1.213,13.602-1.616c4.726-0.412,9.507-0.574,14.281-0.833c-0.019-0.971-0.081-1.941-0.103-2.913
	c-12.469,0-24.939,0-38.071,0c1.93,2.939,3.156,4.872,5.615,8.687c-28.402-0.969-54.971-1.868-81.493-2.765
	c-0.088-1.282-0.22-2.52-0.307-3.802c6.149-1.043,12.298-2.046,19.052-3.227c-9.488-5.521-119.652-8.843-131.538-4.053
	c10.841,4.999,23.459-1.085,33.218,5.894c-1.46,1.725-2.695,2.293-3.971,2.283c-26.594-0.498-53.187-0.985-79.776-1.786
	c-2.51-0.078-4.949-2.113-9.281-4.071c5.714-2.183,9.172-3.535,12.763-4.86c-2.054-3.551-3.957-6.814-6.759-11.675
	c9.232,0.826,16.854,1.956,24.508,2.13c13.542,0.328,27.114-0.1,40.68,0.162c15.329,0.322,30.654,1.191,45.984,1.624
	c5.105,0.158,10.276-0.51,15.325-0.164c13.289,0.974,26.559,2.666,39.852,3.389c6.013,0.326,12.157-1.524,18.187-1.435
	c10.206,0.207,20.403,1.212,30.609,1.698c23.826,1.136,47.606,2.41,71.438,3.156c14.246,0.474,28.505-0.088,42.712,0.146
	c27.224,0.415,54.447,1.067,81.665,1.628c3.348,0.074,6.764-0.32,10.074,0.177c12.625,1.946,16.052,0.137,20.982-12.909
	c2.443,1.233,6.408,2.033,6.824,3.728c1.277,4.88,3.062,11.267,0.96,14.94c-2.029,3.622-8.575,6.209-13.271,6.402
	c-10.406,0.548-20.938-0.758-31.457-1.158c-16.948-0.646-33.897-1.142-50.893-1.705c-17.236-0.566-34.525-1.211-51.793-1.616
	c-3.484-0.082-6.978,0.737-10.465,1.144c0.079,0.897,0.158,1.796,0.238,2.738c52.607,2.206,105.214,4.458,160.33,6.756
	c0-20.763,0.065-40.545-0.007-60.326c-0.06-15.872-0.425-31.7-0.265-47.569c0.11-14.118,0.736-28.279,1.303-42.392
	c0.412-10.442,1.067-20.835,1.645-31.251c0.621-10.46,1.674-20.939,1.694-31.402c0.012-6.661-2.112-13.347-2.103-20.03
	c0.08-26.381,0.576-52.761,1.039-79.14c0.251-15.879,0.911-31.741,0.885-47.621c-0.051-5.636-1.301-10.953-9.402-11.023
	c-16.198-0.122-32.4-0.725-48.545-1.629c-11.741-0.677-24.062,3.208-35.027-4.128c-0.777-0.489-2.094-0.156-3.147-0.085
	c-14.674,0.853-29.346,1.782-44.022,2.514c-1.528,0.079-3.404-0.568-4.604-1.539c-5.744-4.684-11.604-3.12-18.166-1.986
	c-6.062,1.048-12.551-0.528-18.86-0.977c-2.042-0.155-4.158-0.84-6.162-0.52c-5.845,0.937-11.619,3.208-17.447,3.239
	c-13.116,0.046-26.242-0.681-39.299-1.685c-3.572-0.265-6.99-3.905-10.466-3.838c-9.16,0.142-18.304,1.956-27.466,2.24
	c-13.725,0.414-27.495,0.198-41.265,0.038c-2.672-0.035-5.286-1.217-8.009-1.501c-8.128-0.878-16.305-1.943-24.488-2.149
	c-4.559-0.119-9.229,1.987-13.795,1.918c-27.713-0.333-55.425-0.937-83.112-1.622c-7.74-0.183-11.475,3.03-11.103,10.898
	c0.168,3.645,0.521,7.376-0.07,10.939c-2.271,14.074-2.003,15.478-16.021,15.324c-18.525-0.196-37.08,0.35-55.598-0.214
	c-7.979-0.242-10.46,3.363-10.826,10.223c-0.276,5.013-0.364,10.041-1,14.992c-2.366,18.932-5.072,37.846-7.391,56.781
	c-1.974,15.961-3.405,31.974-5.412,47.933c-2.528,20.302-5.45,40.539-8.084,60.836c-2.506,19.211-4.65,38.489-7.364,57.644
	c-1.093,7.757,0.761,10.929,8.502,11.183c18.154,0.646,36.317,0.819,54.44,1.851c11.461,0.642,23.892-0.154,30.586,12.639
	c0.687,1.298,2.64,1.893,4.011,2.854c8.755,6.082,14.676,13.46,12.646,25.125c-1.007,5.74-0.966,11.605-1.861,17.355
	c-0.487,3.139-1.954,6.075-2.998,9.132c-1.188-3.307-2.599-6.541-3.491-9.883c-0.291-1.134,1.097-2.652,1.049-3.949
	c-0.404-9.088,1.994-19.968-2.181-26.852c-7.214-11.894-19.011-20.423-34.655-19.777c-7.568,0.315-15.112,0.754-22.77,1.16
	c-1.102,8.9-1.174,8.326-10.172,9.219c-7.627,0.743-15.118,3.08-24.189,5.031c-1.143-10.06-10.016-3.8-16.649-3.979
	c-0.093-0.791-0.179-1.536-0.265-2.327c4.707-2.869,9.416-5.785,14.144-8.701c0.088-0.798,0.18-1.599,0.286-2.354
	c-12.729-1.025-19.288-8.909-25.858-18.388c-7.354-10.552-17.226-19.437-26.341-28.688c-2.26-2.278-5.716-3.475-8.752-4.87
	c-3.564-1.687-7.407-2.766-10.861-4.616c-5.271-2.771-7.618-11.911-16.337-7.542c-0.041,0.008-2.58-3.225-2.387-4.712
	c1.712-14.573,3.573-29.121,5.775-43.599c4.279-28.124,8.828-56.206,13.202-84.322c3.483-22.378,6.72-44.795,10.367-67.16
	c1.254-7.659,8.995-12.732,16.41-12.201c10.824,0.776,21.686,1.594,32.52,1.557c7.694-0.02,15.432-1.149,23.08-2.322
	c10.783-1.655,21.441-4.766,32.26-5.359c6.73-0.39,12.205-0.93,17.684-7.967c-8.316,0-15.119-0.283-21.86,0.107
	c-4.943,0.276-9.879,2.228-14.748,2.026c-18.064-0.755-36.108-1.774-54.128-3.279c-12.857-1.088-25.694-2.842-38.438-4.863
	c-4.823-0.765-8.018-3.817-5.064-10.618c13.51,11.272,29.421,8.711,44.83,8.832c11.636,0.085,23.503-1.379,34.888,0.343
	c26.504,4.041,53.252-2.162,79.641,2.918c4.055,0.792,6.926-0.547,8.019-6.011c1.513-7.649,4.988-14.909,7.821-22.864
	c7.064,6.202,14.754,8.039,23.626,4.013c2.322-1.064,5.526-0.362,8.324-0.239c23.939,1.079,47.831,2.305,71.795,3.214
	c3.754,0.15,7.638-1.635,11.428-1.421c13.855,0.833,27.65,2.255,41.504,3.189c18.014,1.219,36.075,2.688,54.145,3.117
	c13.475,0.298,27.06-0.604,40.533-1.572c4.479-0.322,8.854-2.473,13.3-3.777c-4.463-2.625-8.915-5.27-13.447-7.804
	c-0.645-0.345-1.639-0.102-2.465-0.048c-14.012,1.142-28.27-4.427-42.136,1.53c-1.129,0.484-2.745-0.158-4.125-0.316
	c-8.518-0.966-17.028-2.556-25.601-2.795c-30.488-0.851-60.98-1.292-91.518-1.775c-9.896-0.143-19.807,0.272-29.716-0.011
	c-9.73-0.279-19.688-2.642-29.132-1.296c-11.601,1.666-20.906-1.577-30.408-7.139c-3.636-2.116-8.376-3.146-12.635-3.236
	c-35.627-0.788-71.274-1.628-106.908-1.699c-27.688-0.044-55.397,1.09-83.088,1.5c-6.355,0.104-12.109,0.717-12.968,8.43
	c-0.81,7.216,4.217,10.007,10.101,11.865c7.77,2.435,11.019,11.146,5.218,16.02c-4.365,3.672-10.522,6.635-16.077,7.018
	c-6.296,0.44-8.555,2.457-8.604,8.182c-0.026,1.41,0.087,2.826-0.036,4.211c-1.046,11.549,2.922,16.069,13.981,15.023
	c5.731-0.557,10.7,1.133,12.491,6.126c2.343,6.51,9.988,11.954,4.785,20.5c-1.595,2.638-2.077,6.12-2.526,9.286
	c-1.268,8.874-2.792,17.757-3.192,26.701c-0.296,6.905-10.302,14.954,0.888,19.654c-2.236,6.69-4.817,12.446-6.042,18.482
	c-1.772,8.634-1.691,17.707-3.934,26.178c-4.658,17.479-9.51,34.705-10.159,53.107c-0.274,7.946-5.041,16.031-8.883,23.481
	c-2.183,4.222-6.572,7.302-9.975,10.882c0.771,0.314,1.543,0.628,2.315,0.897c1.018,2.583,2.044,5.165,3.074,7.704
	c-2.871-0.741-5.748-1.466-8.588-2.285c-0.481-0.152-0.779-0.799-1.22-1.131c-4.444-3.485-8.631-3.67-10.234,2.423
	c-1.516,5.83-5.526,7.538-10.436,8.908c-14.461,3.984-19.296,17.106-26.298,28.125C64.034,377.18,64.582,378.55,64.854,382.188z
	 M185.964,435.994c1.874-35.646-32.111-62.568-65.902-60.466c-23.03,1.401-42.07,10.868-58.646,28.236
	c-25.21,26.483-26.331,76.749,4.009,101.548c10.995,8.996,24.21,14.091,37.249,14.183c17.717,0.154,34.751-5.047,49.77-16.787
	C173.275,486.422,185.506,466.577,185.964,435.994z M126.916,180.29c0.484,0.113,0.969,0.228,1.454,0.319
	c-0.953,3.367-2.034,6.719-2.829,10.125c-3.004,13.138-6.366,26.227-8.75,39.483c-3.255,18.191-5.731,36.511-8.568,54.781
	c-1.655,10.616-3.642,21.17-4.896,31.851c-0.77,6.559,3.042,8.345,9.453,6.488c9.06-2.598,9.391-10.222,10.504-17.017
	c3.765-22.862,6.712-45.874,10.514-68.733c5.272-31.81,11.104-63.511,16.545-95.287c2.111-12.322-0.612-16.412-12.604-19.248
	c-1.903-0.448-4.786-0.197-6.004,0.981c-1.047,1.012-0.446,3.816-0.398,5.832c0.2,7.334,1.247,14.746,0.525,21.971
	C130.925,161.397,128.625,170.829,126.916,180.29z M784.973,77.747c0.426-1.456,0.846-2.91,1.31-4.363
	c-5.032-2.122-9.968-5.688-15.15-6.093c-11.767-0.927-23.685-0.604-35.513-0.046c-2.646,0.122-5.099,3.26-7.625,5.028
	c3.091,1.587,6.029,3.969,9.334,4.553c3.07,0.561,6.485-1.297,9.723-1.16C759.695,76.165,772.334,77.019,784.973,77.747z
	 M354.597,513.975c11.74,8.032,84.043,9.988,89.887,3.233C414.128,514.292,384.415,512.944,354.597,513.975z M197.953,168.087
	c19.581,2.275,39.065,7.853,58.925,1.701C237.397,165.254,217.776,164.268,197.953,168.087z M259.593,143.886
	c-0.003-0.806-0.028-1.61-0.033-2.395c-19.658-0.488-39.274-5.425-58.978-0.813c-0.025,1.062-0.031,2.125-0.035,3.208
	C220.222,143.886,239.904,143.886,259.593,143.886z M182.667,263.571c-0.078,1.492-0.157,2.984-0.237,4.454
	c8.233,0.93,16.459,2.112,24.727,2.561c1.745,0.109,3.646-2.49,5.472-3.861c-1.781-1.415-3.534-4.008-5.344-4.019
	C199.089,262.594,190.867,263.208,182.667,263.571z M196.29,237.467c4.149,4.776,24.766,5.23,29.585,0.679
	C221.703,234.059,201.163,233.605,196.29,237.467z M234.237,196.856c-9.201-0.396-18.292-8.87-29.019-0.893
	C215.504,203.745,225.021,197.592,234.237,196.856z M228.675,210.067c9.117,7.005,17.462,4.981,27.753,1.793
	C246.552,207.955,238.599,204.106,228.675,210.067z M199.01,153.567c0,0.773,0,1.546,0,2.32c11.912,0,23.824,0,35.714,0
	c-0.002-0.773-0.006-1.546-0.009-2.32C222.807,153.567,210.919,153.567,199.01,153.567z M247.963,226.925
	c0.011-0.851,0.042-1.701,0.053-2.551c-3.746-1.302-7.458-3.127-11.318-3.683c-1.607-0.211-3.573,2.317-5.389,3.605
	c1.379,1.422,2.751,4.045,4.142,4.056C239.617,228.428,243.792,227.467,247.963,226.925z M221.545,182.024
	c0.008,0.774,0.034,1.549,0.041,2.343c9.854,0,19.728,0,29.581,0c0.002-0.794,0.005-1.569,0.009-2.343
	C241.312,182.024,231.429,182.024,221.545,182.024z M236.134,128.085c0.047,0.774,0.115,1.549,0.161,2.342
	c9.542,0,19.089,0,28.645,0c0.003-0.793,0.006-1.568,0.009-2.342C255.343,128.085,245.738,128.085,236.134,128.085z
	 M829.322,461.133c0.813,0.014,1.628,0.07,2.443,0.086c0-7.214,0-14.425,0-21.637c-0.815,0.004-1.63,0.006-2.443,0.008
	C829.322,446.786,829.322,453.937,829.322,461.133z M584.704,524.433c-3.876-5.523-8.735-5.414-13.771-2.104
	c-0.664,0.424-0.664,3.737,0,4.204C575.969,529.799,580.828,529.953,584.704,524.433z M210.642,253.673
	c-0.006-0.765-0.035-1.53-0.042-2.273c-8.717,0-17.447,0-26.171,0c0.029,0.743,0.037,1.508,0.066,2.273
	C193.21,253.673,201.926,253.673,210.642,253.673z M239.53,284.468c0.08-0.933,0.145-1.887,0.22-2.797
	c-3.135-1.293-6.211-3.197-9.483-3.636c-1.708-0.212-3.745,2.141-5.646,3.322c1.338,1.454,2.594,4.016,4.021,4.129
	C232.237,285.735,235.891,284.877,239.53,284.468z M382.792,446.788c-0.032,0.648-0.041,1.298-0.073,1.944
	c8.505,0,16.987,0,25.491,0c0.032-0.646,0.041-1.296,0.072-1.944C399.779,446.788,391.275,446.788,382.792,446.788z M576.52,453.534
	c-0.01,0.642-0.064,1.282-0.074,1.921c7.387,0,14.816,0,22.203,0c0.009-0.639,0.062-1.279,0.074-1.921
	C591.336,453.534,583.906,453.534,576.52,453.534z M189.496,222.39c0.028,0.728,0.037,1.457,0.066,2.185c7.052,0,14.104,0,21.157,0
	c-0.036-0.728-0.071-1.457-0.086-2.185C203.587,222.39,196.541,222.39,189.496,222.39z"/>
</svg>
